<svg xmlns="http://www.w3.org/2000/svg" width="14" height="12.22" viewBox="0 0 14 12.22"><defs><style>.cls-1{fill:#707172;}</style></defs><title>icon-favorites</title><g id="Layer_2" data-name="Layer 2"><g id="_1607_Icons" data-name="1607 Icons"><path class="cls-1" d="M13.53,5.53a3.78,3.78,0,0,0,.22-.48A2.78,2.78,0,0,0,14,4S14,4,14,4s0-.13,0-.2A3.74,3.74,0,0,0,7,1.9,3.74,3.74,0,0,0,0,3.76c0,.1,0,.18,0,.28H0A3,3,0,0,0,.29,5.2v0c1.31,3,6.68,7,6.68,7s4.61-3.46,6.35-6.33c.07-.1.12-.21.18-.32Z"/></g></g></svg>