<svg xmlns="http://www.w3.org/2000/svg" width="13.89" height="16" viewBox="0 0 13.89 16"><defs><style>.cls-1{fill:#707172;}</style></defs><title>icon-calories</title><g id="Layer_2" data-name="Layer 2"><g id="_1607_Icons" data-name="1607 Icons"><path class="cls-1" d="M3.91,16a4.08,4.08,0,0,1,.32-4.69A7.5,7.5,0,0,0,5.36,8.7a3.06,3.06,0,0,1,.42,2.35A5.93,5.93,0,0,0,7.08,6.61,7.68,7.68,0,0,1,9.48,16c8.63-4.88,2.15-12.19,1-13a2.68,2.68,0,0,1-.31,2.89C8.89,1,5.71,0,5.71,0c.38,2.52-1.36,5.27-3,7.32A5.45,5.45,0,0,0,2,4.67C1.9,6.49.51,8,.13,9.8c-.51,2.47.38,4.28,3.78,6.2Z"/></g></g></svg>