<svg xmlns="http://www.w3.org/2000/svg" width="13.86" height="14" viewBox="0 0 13.86 14"><defs><style>.cls-1{fill:#707172;}</style></defs><title>icon-search</title><g id="Layer_2" data-name="Layer 2"><g id="_1607_Icons" data-name="1607 Icons"><path class="cls-1" d="M4.9,1.61A3.29,3.29,0,1,1,1.61,4.9,3.29,3.29,0,0,1,4.9,1.61M4.9,0A4.9,4.9,0,1,0,9.8,4.9,4.91,4.91,0,0,0,4.9,0Z"/><path class="cls-1" d="M12.52,14a1.34,1.34,0,0,1-.95-.39L9.19,11.22a1.34,1.34,0,1,1,1.9-1.9l2.38,2.38A1.34,1.34,0,0,1,12.52,14Z"/><rect class="cls-1" x="7.97" y="7.99" width="1.61" height="1.85" transform="translate(-3.73 8.82) rotate(-45.02)"/></g></g></svg>