<svg xmlns="http://www.w3.org/2000/svg" width="477.29" height="129.59" viewBox="0 0 477.29 129.59"><defs><style>.cls-1{fill:#48b038;}.cls-2{fill:#fff;}.cls-3{fill:#1c1b1a;}</style></defs><title>Asset 2</title><g id="Layer_2" data-name="Layer 2"><g id="Shakeology"><rect class="cls-1" x="246.85" y="86.76" width="110.64" height="42.83" rx="21.42" ry="21.42"/><path class="cls-2" d="M263.35,93.83H278.3q4.88,0,7.31,2.32a8.71,8.71,0,0,1,2.43,6.61,9,9,0,0,1-2.65,6.89q-2.65,2.48-8.09,2.48h-4.92v10.8h-9Zm9,12.41h2.2a5.67,5.67,0,0,0,3.65-.9,2.91,2.91,0,0,0,1.05-2.31,3.23,3.23,0,0,0-.91-2.32q-.91-1-3.43-1h-2.56Z"/><path class="cls-2" d="M306.53,118.13H296.33l-1.42,4.8h-9.18l10.94-29.1h9.81l10.93,29.1H308Zm-1.87-6.29-3.21-10.46-3.18,10.46Z"/><path class="cls-2" d="M319.61,93.83h9v21.93h14v7.17h-23Z"/></g><g id="Leaf"><path class="cls-3" d="M12.81,63.13c.59,5,2.62,7.31,10.46,7.31,4.17,0,8.15-1.08,8.15-4.43s-2.22-4-15-7c-9.6-2.37-15-5.41-15-13.78,0-9.51,8-16.31,20.08-16.31,11,0,20.12,3.52,21.32,16.09H30.23c-.43-4-2.56-6.43-8.49-6.43-4.78,0-7.64,1.56-7.64,4.3,0,3.13,2.23,3.83,15.06,6.65,8.36,2,15,5.92,15,14.45,0,11-8.89,16.27-21.9,16.27C7.08,80.2,0,73.06,0,63.13Z"/><path class="cls-3" d="M92.46,47.21V78.62H79.56V49.2c0-5.23-1.73-9.67-7.83-9.67-7.07,0-10.12,5.21-10.12,12.91V78.62H49V10.19H61.61V36.56A16.16,16.16,0,0,1,75.08,29C88.61,29,92.46,37.36,92.46,47.21Z"/><polygon class="cls-3" points="145.72 10.09 158.13 10.09 158.13 48.69 174.06 30.47 189.77 30.47 172.45 48.47 190.44 78.56 175.06 78.56 163.36 57.92 158.13 63.35 158.13 78.56 145.72 78.56 145.72 10.09"/><path class="cls-3" d="M127.13,44.47c0-4.77-4.39-5.23-8.22-5.23-6,0-7.61,2.83-8.22,6.65H98.5c.6-9.52,5.8-16.8,20.83-16.8,8.83,0,20.34,2.44,20.34,14.59V66.28c0,7.29,0,9.16,2.7,10.42v1.86H128.63a19.39,19.39,0,0,1-1.15-5.67c-3.83,4.13-8.8,7.18-15.34,7.18-8.13,0-15.2-4.61-15.2-14.36,0-12.27,9.37-14.9,18.08-16C118,49.32,127.13,49.42,127.13,44.47Zm0,10.59c-6.68,4.21-17.5.91-17.5,9.71,0,4.14,2.59,6.12,6.25,6.12,4.95,0,11.25-2.36,11.25-11.12Z"/><path class="cls-3" d="M237.54,57.95H202.36c.41,10.15,7.54,12,12,12,5.25,0,7.94-2.37,9.61-5.54h12.9C236.27,69.63,229.8,80.2,214,80.2c-13.36,0-24.39-7.88-24.39-25.29,0-15,9.54-25.95,23.93-25.95C238.38,29,237.64,51.69,237.54,57.95Zm-33.89-8.33h21.76c-.5-7.23-5.44-10.24-10.86-10.24C208,39.38,204.56,43.43,203.66,49.62Z"/><rect class="cls-3" x="295.86" y="10.16" width="12.63" height="68.4"/><path class="cls-3" d="M400.84,37.21v-7h12.32V76.08c0,14.78-5.89,22.25-23.89,22.25-10.21,0-20.67-3.8-21.58-14.49h13.74c.77,3.22,2.67,4.92,8.6,4.92,9.71,0,10.64-6.51,10.64-14.4v-3.1c-1.49,2.55-4.58,7.54-13.69,7.54-13.64,0-20.44-10.88-20.44-24.24,0-11.59,5.49-25.44,20.54-25.44C392,29.1,397.17,30.6,400.84,37.21Zm-.09,17c0-8.7-3.82-14-10.64-14-9.22,0-10.46,9.15-10.46,14.45,0,7.18,2.94,13.61,10.59,13.61C396.81,68.19,400.75,63.08,400.75,54.18Z"/><path class="cls-3" d="M425,87.82c7.71.4,8.64-.7,10-4.21a7.63,7.63,0,0,0,.82-2.93L418.07,30.25h14l10.55,35.64,10-35.64h13.43L449.51,77.76c-6.24,17.86-8,20.35-18.78,20.35-1.12,0-4.41-.09-5.77-.18Z"/><path class="cls-3" d="M266.72,28.65C245.78,28.65,242,46.11,242,54.42s3.75,25.77,24.69,25.77,24.69-17.46,24.69-25.77S287.66,28.65,266.72,28.65Zm0,40.86c-7.95,0-11.57-6.17-11.57-15.09s3.62-15.09,11.57-15.09,11.57,6.17,11.57,15.09S274.66,69.52,266.72,69.52Z"/><path class="cls-3" d="M337.67,28.65C316.73,28.65,313,46.11,313,54.42s3.75,25.77,24.69,25.77,24.69-17.46,24.69-25.77S358.61,28.65,337.67,28.65Zm0,40.86c-7.95,0-11.57-6.17-11.57-15.09s3.62-15.09,11.57-15.09,11.57,6.17,11.57,15.09S345.62,69.52,337.67,69.52Z"/><path class="cls-3" d="M477.29,34.75a4.6,4.6,0,1,1-4.6-4.6A4.54,4.54,0,0,1,477.29,34.75Zm-8.49,0a3.89,3.89,0,1,0,3.89-3.95A3.86,3.86,0,0,0,468.8,34.75Zm2.87,2.66H471V32.08h2c1.2,0,1.73.52,1.73,1.48A1.43,1.43,0,0,1,473.45,35L475,37.41h-.76L472.77,35h-1.1Zm.87-2.92c.8,0,1.6,0,1.6-.92,0-.74-.62-.92-1.26-.92h-1.2v1.84Z"/><path class="cls-1" d="M266.93,24.79c20.69-4,16.25-26.17,43.31-24.32-10.63,6.25-8.93,22.49-25.88,27C275.18,29.89,266.93,24.79,266.93,24.79Zm-2.21-1.09C283.56,21,280.48,4.5,298.62.34,271.58-3,274.81,19.39,264.73,23.69Z"/></g></g></svg>